<svg width="33" height="32" viewBox="0 0 33 32" fill="none" xmlns="http://www.w3.org/2000/svg">
<path fill-rule="evenodd" clip-rule="evenodd" d="M16.9875 0C8.15452 0 0.987488 7.16703 0.987488 16C0.987488 24.833 8.15452 32 16.9875 32C25.8031 32 32.9875 24.833 32.9875 16C32.9875 7.16703 25.8031 0 16.9875 0ZM27.5558 7.37527C29.4647 9.70065 30.6101 12.6681 30.6448 15.8785C30.1936 15.7918 25.6816 14.872 21.135 15.4447C21.0309 15.2191 20.9441 14.9761 20.84 14.7332C20.5623 14.0738 20.25 13.397 19.9376 12.7549C24.9701 10.7072 27.2608 7.75705 27.5558 7.37527ZM16.9875 2.36009C20.4582 2.36009 23.6339 3.66161 26.0461 5.7961C25.8031 6.14317 23.738 8.90239 18.879 10.7245C16.6404 6.61171 14.1589 3.24512 13.7771 2.72451C14.8009 2.48156 15.8769 2.36009 16.9875 2.36009ZM11.1741 3.64425C11.5385 4.13015 13.968 7.5141 16.2413 11.5401C9.85517 13.2408 4.21526 13.2061 3.60788 13.2061C4.49291 8.9718 7.35625 5.44902 11.1741 3.64425ZM3.31287 16.0174C3.31287 15.8785 3.31287 15.7397 3.31287 15.6009C3.90289 15.6182 10.532 15.705 17.3519 13.6573C17.7511 14.4208 18.1155 15.2017 18.4626 15.9826C18.289 16.0347 18.0981 16.0868 17.9246 16.1388C10.879 18.4121 7.13066 24.6247 6.81829 25.1453C4.64909 22.7332 3.31287 19.5228 3.31287 16.0174ZM16.9875 29.6746C13.8291 29.6746 10.9137 28.5987 8.60571 26.7939C8.84866 26.2907 11.6252 20.9458 19.3302 18.256C19.3649 18.2386 19.3823 18.2386 19.417 18.2213C21.3432 23.2017 22.1242 27.3839 22.3324 28.5813C20.6838 29.2928 18.879 29.6746 16.9875 29.6746ZM24.6057 27.3319C24.4669 26.4989 23.738 22.5076 21.9506 17.5965C26.237 16.9197 29.9853 18.0304 30.4539 18.1866C29.8639 21.987 27.6773 25.2668 24.6057 27.3319Z" fill="#676767"/>
</svg>
