<svg width="33" height="32" viewBox="0 0 33 32" fill="none" xmlns="http://www.w3.org/2000/svg">
<path d="M32.6687 9.60006C32.6687 9.60006 32.3562 7.39381 31.3937 6.42506C30.175 5.15006 28.8125 5.1438 28.1875 5.0688C23.7125 4.7438 16.9937 4.7438 16.9937 4.7438H16.9812C16.9812 4.7438 10.2625 4.7438 5.78749 5.0688C5.16249 5.1438 3.79999 5.15006 2.58124 6.42506C1.61874 7.39381 1.31249 9.60006 1.31249 9.60006C1.31249 9.60006 0.987488 12.1938 0.987488 14.7813V17.2063C0.987488 19.7938 1.30624 22.3876 1.30624 22.3876C1.30624 22.3876 1.61874 24.5938 2.57499 25.5626C3.79374 26.8376 5.39374 26.7938 6.10624 26.9313C8.66874 27.1751 16.9875 27.2501 16.9875 27.2501C16.9875 27.2501 23.7125 27.2376 28.1875 26.9188C28.8125 26.8438 30.175 26.8376 31.3937 25.5626C32.3562 24.5938 32.6687 22.3876 32.6687 22.3876C32.6687 22.3876 32.9875 19.8001 32.9875 17.2063V14.7813C32.9875 12.1938 32.6687 9.60006 32.6687 9.60006ZM13.6812 20.1501V11.1563L22.325 15.6688L13.6812 20.1501Z" fill="#676767"/>
</svg>
